<?xml version="1.0" standalone="no"?>
<!DOCTYPE svg PUBLIC "-//W3C//DTD SVG 20010904//EN"
 "http://www.w3.org/TR/2001/REC-SVG-20010904/DTD/svg10.dtd">
<svg version="1.0" xmlns="http://www.w3.org/2000/svg"
 width="512.000000pt" height="512.000000pt" viewBox="0 0 512.000000 512.000000"
 preserveAspectRatio="xMidYMid meet">

<g transform="translate(0.000000,512.000000) scale(0.100000,-0.100000)"
fill="#000000" stroke="none">
<path d="M2295 4848 c-420 -47 -856 -231 -1190 -501 -114 -92 -299 -285 -387
-403 -241 -325 -393 -700 -444 -1095 -23 -183 -16 -502 16 -679 126 -715 576
-1325 1217 -1653 314 -161 610 -236 991 -254 l142 -6 0 755 0 756 -31 6 c-17
3 -139 6 -270 6 -131 0 -240 4 -243 8 -3 5 -6 149 -7 321 -1 257 1 315 12 322
8 5 132 9 275 9 l261 0 6 308 c6 325 14 391 60 520 98 280 318 451 638 498 99
14 144 15 373 5 159 -7 265 -16 273 -23 11 -8 13 -68 11 -302 l-3 -291 -230
-6 c-126 -3 -244 -11 -261 -16 -89 -30 -129 -69 -154 -151 -18 -56 -20 -93
-20 -303 l0 -239 315 0 c243 0 317 -3 320 -12 8 -20 -73 -630 -85 -642 -6 -6
-91 -10 -222 -11 -117 -1 -239 -2 -270 -3 l-58 -2 0 -686 0 -685 23 6 c66 21
269 119 377 185 511 309 881 790 1039 1352 62 222 76 336 76 623 -1 277 -9
354 -60 555 -78 308 -235 625 -434 875 -319 402 -808 708 -1301 814 -227 48
-533 64 -755 39z"/>
</g>
</svg>
