<?xml version="1.0" standalone="no"?>
<!DOCTYPE svg PUBLIC "-//W3C//DTD SVG 20010904//EN"
 "http://www.w3.org/TR/2001/REC-SVG-20010904/DTD/svg10.dtd">
<svg version="1.0" xmlns="http://www.w3.org/2000/svg"
 width="512.000000pt" height="512.000000pt" viewBox="0 0 512.000000 512.000000"
 preserveAspectRatio="xMidYMid meet">

<g transform="translate(0.000000,512.000000) scale(0.100000,-0.100000)"
fill="#000000" stroke="none">
<path d="M1307 4674 c-216 -39 -393 -131 -554 -287 -142 -138 -238 -300 -291
-495 l-27 -97 -3 -841 -3 -841 98 -6 c133 -8 281 -38 419 -85 l114 -39 0 556
c1 676 6 770 50 903 89 269 309 486 580 574 84 27 88 27 480 35 217 5 570 5
785 0 364 -8 395 -10 460 -31 283 -91 502 -303 596 -578 l33 -97 6 -392 c3
-216 2 -570 -1 -785 -5 -374 -7 -396 -28 -463 -94 -285 -307 -505 -578 -595
-135 -44 -227 -49 -932 -50 -560 0 -593 -1 -588 -17 58 -207 77 -324 77 -486
l0 -128 898 3 897 3 97 27 c188 52 336 136 475 271 142 138 237 300 291 495
l27 97 0 1235 0 1235 -27 97 c-113 410 -440 712 -847 783 -122 22 -2385 21
-2504 -1z"/>
<path d="M1814 3835 c-204 -45 -382 -184 -472 -367 -71 -145 -72 -154 -72
-885 0 -356 3 -665 6 -685 6 -33 17 -45 91 -99 151 -110 307 -281 410 -449
l40 -65 69 -8 c38 -4 371 -6 739 -5 l670 3 70 23 c186 62 332 188 416 357 68
138 69 151 69 906 0 756 0 761 -73 909 -33 69 -58 102 -132 175 -94 94 -155
134 -275 177 l-65 23 -715 2 c-571 1 -727 -1 -776 -12z m1626 -336 c76 -43
104 -150 57 -220 -35 -52 -82 -79 -137 -79 -121 0 -196 129 -140 240 38 74
143 102 220 59z m-685 -219 c246 -76 443 -267 522 -505 36 -110 39 -291 5
-408 -64 -224 -199 -385 -405 -482 -443 -209 -950 50 -1051 537 -51 248 32
491 233 681 108 101 247 171 389 197 75 14 228 4 307 -20z"/>
<path d="M2431 3084 c-238 -64 -411 -279 -411 -512 0 -144 63 -295 163 -395
167 -167 401 -202 622 -93 272 135 368 435 230 722 -106 221 -368 342 -604
278z"/>
</g>
</svg>
