<?xml version="1.0" standalone="no"?>
<!DOCTYPE svg PUBLIC "-//W3C//DTD SVG 20010904//EN"
 "http://www.w3.org/TR/2001/REC-SVG-20010904/DTD/svg10.dtd">
<svg version="1.0" xmlns="http://www.w3.org/2000/svg"
 width="360.000000pt" height="360.000000pt" viewBox="0 0 360.000000 360.000000"
 preserveAspectRatio="xMidYMid meet">

<g transform="translate(0.000000,360.000000) scale(0.100000,-0.100000)"
fill="#000000" stroke="none">
<path d="M847 3589 c-207 -30 -420 -141 -568 -296 -119 -125 -198 -266 -251
-448 l-22 -80 -4 -915 c-3 -1018 -3 -1027 62 -1202 53 -140 118 -240 231 -353
113 -113 213 -178 353 -231 175 -65 184 -65 1202 -62 l915 4 80 23 c194 55
351 147 475 277 120 126 199 267 252 449 l22 80 4 915 c3 1018 3 1027 -62
1202 -53 140 -118 240 -231 353 -113 113 -213 178 -353 230 -172 65 -179 65
-1161 64 -487 -1 -912 -5 -944 -10z m1898 -324 c194 -40 371 -178 459 -355 80
-162 77 -122 74 -1143 -3 -847 -4 -905 -22 -957 -79 -234 -232 -387 -466 -466
-52 -18 -110 -19 -957 -22 -1021 -3 -981 -6 -1143 74 -132 66 -228 162 -294
294 -78 159 -76 123 -76 1106 0 582 4 890 11 930 48 265 259 482 523 539 94
21 1793 21 1891 0z"/>
<path d="M2710 2991 c-108 -33 -173 -119 -173 -226 0 -235 304 -321 428 -120
26 42 30 58 30 119 -1 47 -6 82 -18 103 -52 97 -172 152 -267 124z"/>
<path d="M1686 2719 c-263 -36 -491 -173 -642 -385 -54 -76 -117 -208 -138
-289 -58 -227 -37 -446 64 -650 120 -247 350 -432 615 -496 114 -28 292 -30
410 -5 239 51 469 214 595 422 160 264 179 597 50 871 -125 266 -354 452 -640
517 -87 20 -229 27 -314 15z m302 -343 c97 -33 155 -68 232 -142 194 -186 241
-460 122 -704 -51 -104 -168 -221 -272 -272 -148 -73 -310 -84 -460 -34 -95
33 -154 68 -230 142 -193 186 -240 458 -123 704 50 104 169 223 273 273 149
71 311 83 458 33z"/>
</g>
</svg>
